<?xml version="1.0" encoding="UTF-8" standalone="no"?>
<!-- Created with Inkscape (http://www.inkscape.org/) -->

<svg
   id="svg2985"
   version="1.1"
   inkscape:version="1.1.2 (0a00cf5339, 2022-02-04)"
   width="600"
   height="600"
   sodipodi:docname="favicon delfin.svg"
   inkscape:export-filename="/home/sulovic/Документа/Shoppy/Branding/logo512.png"
   inkscape:export-xdpi="81.919998"
   inkscape:export-ydpi="81.919998"
   xmlns:inkscape="http://www.inkscape.org/namespaces/inkscape"
   xmlns:sodipodi="http://sodipodi.sourceforge.net/DTD/sodipodi-0.dtd"
   xmlns="http://www.w3.org/2000/svg"
   xmlns:svg="http://www.w3.org/2000/svg"
   xmlns:rdf="http://www.w3.org/1999/02/22-rdf-syntax-ns#"
   xmlns:cc="http://creativecommons.org/ns#"
   xmlns:dc="http://purl.org/dc/elements/1.1/">
  <metadata
     id="metadata2991">
    <rdf:RDF>
      <cc:Work
         rdf:about="">
        <dc:format>image/svg+xml</dc:format>
        <dc:type
           rdf:resource="http://purl.org/dc/dcmitype/StillImage" />
      </cc:Work>
    </rdf:RDF>
  </metadata>
  <defs
     id="defs2989" />
  <sodipodi:namedview
     pagecolor="#ffffff"
     bordercolor="#666666"
     borderopacity="1"
     objecttolerance="10"
     gridtolerance="10"
     guidetolerance="10"
     inkscape:pageopacity="0"
     inkscape:pageshadow="2"
     inkscape:window-width="1920"
     inkscape:window-height="997"
     id="namedview2987"
     showgrid="false"
     inkscape:zoom="0.43487066"
     inkscape:cx="163.26694"
     inkscape:cy="90.831606"
     inkscape:window-x="0"
     inkscape:window-y="0"
     inkscape:window-maximized="1"
     inkscape:current-layer="svg2985"
     inkscape:pagecheckerboard="0" />
  <path
     style="fill:#00aee3;fill-opacity:1;stroke:#00aee3;stroke-width:10.7522;stroke-linecap:round;stroke-linejoin:miter;stroke-miterlimit:4;stroke-dasharray:none;stroke-opacity:1"
     d="m 44.984826,590.58174 c -5.792545,-3.27583 -7.89075,-8.32463 -11.20927,-26.97869 -6.466998,-36.3517 -8.587088,-66.30017 -7.839966,-110.74577 0.979605,-58.27538 8.380806,-104.71447 25.2089,-158.17165 3.106828,-9.86989 7.120675,-21.12179 8.919554,-25.00473 1.798853,-3.88294 3.282117,-7.71789 3.296075,-8.5222 0.01344,-0.8043 4.814639,-11.43225 10.668145,-23.61856 l 10.642797,-22.15605 -2.081281,-6.37842 c -1.831765,-5.61091 -2.999361,-6.72052 -9.713824,-9.22838 -6.435607,-2.40288 -11.006001,-2.77717 -29.148424,-2.38366 -11.833906,0.25623 -23.422742,0.49521 -25.753039,0.52935 -4.994683,0.0865 -8.1197832,-2.30629 -11.2051955,-8.53541 -2.7240567,-5.49944 -1.646172,-10.43588 4.0841835,-18.69432 16.144716,-23.26971 48.1239,-44.26866 78.788214,-51.73619 9.649472,-2.35029 18.880125,-3.07791 42.305765,-3.33562 l 29.96322,-0.3314 11.4572,-10.33283 c 28.86276,-26.029783 73.72601,-54.77652 113.71703,-72.866094 22.14204,-10.015702 41.5973,-16.534838 63.8924,-21.409949 47.27113,-10.33600325 90.67979,-5.6438857 131.28243,14.197266 9.22459,4.507346 33.62491,22.400263 43.8481,32.153967 8.45792,8.0697 13.53558,11.555048 20.94767,14.377583 20.30315,7.73132 39.11111,22.787058 44.56026,35.669867 9.68636,22.90053 -4.39209,45.14863 -32.10312,50.73237 -3.63589,0.73237 -13.87471,1.62123 -22.75279,1.97484 -44.14409,1.75063 -67.00838,6.50055 -103.90825,21.14376 -9.70688,3.85106 -4.68553,2.02381 -9.42181,4.58418 -16.45933,8.90079 5.64245,-4.11027 -7.49227,3.37438 -10.03082,5.71521 -3.81211,0.87789 -6.66948,4.19859 -0.71694,0.83176 1.54047,-1.42037 6.54923,-4.2331 30.39482,-17.05919 4.78684,-2.57258 -13.99349,9.03386 -3.79121,1.386 -54.47137,36.55724 -58.42241,32.4673 5.75521,-16.59503 -27.30717,24.69383 -19.45557,16.6863 19.80646,-20.19973 23.74583,-16.68816 31.30441,-20.92861 7.41085,-3.54722 -45.57963,31.50804 -68.76269,53.83028 -29.41304,28.32098 -34.79383,33.96503 -52.58638,55.16019 -24.79269,29.53372 -44.90078,58.421 -57.8705,83.1371 -3.54929,6.76385 -8.02671,13.35972 -9.94978,14.65746 -6.72619,4.53896 -17.94603,1.80792 -20.94936,-5.09838 -4.61234,-10.607 1.29038,-50.49978 12.32082,-83.26988 7.40749,-22.00678 31.33265,-70.12258 37.86744,-76.15507 0.44923,-0.41332 3.64054,-4.79177 7.09187,-9.72663 3.4513,-4.93523 7.03569,-9.71221 7.96524,-10.61564 0.92951,-0.90382 2.35663,-2.78948 3.17117,-4.19173 0.81452,-1.40299 6.40261,-7.87259 12.41781,-14.3789 40.83023,-44.16277 77.1782,-69.92422 152.09205,-107.79438 21.29455,-10.76458 28.36461,-15.00375 26.39171,-15.82379 -5.0963,-2.11831 -34.23854,-1.89745 -46.18513,0.35046 -67.25087,12.65212 -142.80798,63.72394 -191.42588,129.39154 -28.68792,38.7484 -53.86748,89.14588 -70.329811,140.76648 -11.449304,35.90129 -18.902841,68.49649 -25.402083,111.08624 -2.993166,19.61386 -6.274252,58.30886 -6.809196,80.30269 -0.403749,16.59467 -0.42389,16.67612 -5.252474,21.03201 -5.427789,4.89632 -8.009263,5.22836 -14.06022,1.80871 z"
     id="path2995"
     inkscape:connector-curvature="0"
     sodipodi:nodetypes="csssscscccscscsccssssssscccsscsccscsssssscsccssccsssssc"
     inkscape:export-filename="C:\Users\sulov\Downloads\Shoppy\FaviconShoppyOnline.png"
     inkscape:export-xdpi="90"
     inkscape:export-ydpi="90" />
  <text
     xml:space="preserve"
     style="font-style:normal;font-variant:normal;font-weight:bold;font-stretch:normal;font-size:15.731px;line-height:0%;font-family:sans-serif;-inkscape-font-specification:'Sans Bold';letter-spacing:0px;word-spacing:0px;fill:#df1f26;fill-opacity:1;stroke:#df1f26;stroke-width:15.4123;stroke-linejoin:round;stroke-miterlimit:4;stroke-dasharray:none;stroke-opacity:1"
     x="287.056"
     y="584.60199"
     id="text3917"
     inkscape:export-filename="C:\Users\sulov\Downloads\Shoppy\FaviconShoppyOnline.png"
     inkscape:export-xdpi="90"
     inkscape:export-ydpi="90"><tspan
       sodipodi:role="line"
       id="tspan3919"
       x="287.056"
       y="584.60199"
       style="font-size:468.816px;line-height:1.25;font-family:sans-serif;stroke-width:15.4123;stroke-miterlimit:4;stroke-dasharray:none">S</tspan></text>
  <rect
     style="fill:#ffff00;fill-opacity:1;stroke:#ffff00;stroke-width:6.36982;stroke-linecap:round;stroke-linejoin:round;stroke-miterlimit:4;stroke-dasharray:none;stroke-opacity:1"
     id="rect3796-1"
     width="209.35512"
     height="58.34753"
     x="89.064659"
     y="534.68024"
     ry="0.035835747"
     inkscape:export-filename="C:\Users\sulov\Downloads\Shoppy\FaviconShoppyOnline.png"
     inkscape:export-xdpi="90"
     inkscape:export-ydpi="90" />
  <rect
     style="fill:#444444;fill-opacity:1;stroke:#444444;stroke-width:6.36982;stroke-linecap:round;stroke-linejoin:round;stroke-miterlimit:4;stroke-dasharray:none;stroke-opacity:1"
     id="rect3796-1-4"
     width="209.35507"
     height="58.34753"
     x="89.064659"
     y="453.78351"
     ry="0.035835747"
     inkscape:export-filename="C:\Users\sulov\Downloads\Shoppy\FaviconShoppyOnline.png"
     inkscape:export-xdpi="90"
     inkscape:export-ydpi="90" />
</svg>
